G04 Layer_Color=65535*
%FSLAX25Y25*%
%MOIN*%
G70*
G01*
G75*
%ADD17C,0.01000*%
%ADD24C,0.02362*%
%ADD25C,0.00984*%
%ADD26C,0.00787*%
D17*
X185000Y188999D02*
Y185667D01*
X185667Y185000D01*
X186999D01*
X187666Y185667D01*
Y188999D01*
X188999Y185000D02*
X190332D01*
X189665D01*
Y188999D01*
X188999Y188332D01*
X193600Y243099D02*
X196266D01*
X194933D01*
Y239100D01*
X197599D02*
Y243099D01*
X199598D01*
X200265Y242432D01*
Y241099D01*
X199598Y240433D01*
X197599D01*
X204263Y243099D02*
X202930Y242432D01*
X201597Y241099D01*
Y239766D01*
X202264Y239100D01*
X203597D01*
X204263Y239766D01*
Y240433D01*
X203597Y241099D01*
X201597D01*
X217000Y142499D02*
X219666D01*
X218333D01*
Y138500D01*
X220999D02*
Y142499D01*
X222998D01*
X223664Y141832D01*
Y140499D01*
X222998Y139833D01*
X220999D01*
X227663Y142499D02*
X224997D01*
Y140499D01*
X226330Y141166D01*
X226997D01*
X227663Y140499D01*
Y139166D01*
X226997Y138500D01*
X225664D01*
X224997Y139166D01*
X186500Y217499D02*
X189166D01*
X187833D01*
Y213500D01*
X190499D02*
Y217499D01*
X192498D01*
X193165Y216832D01*
Y215499D01*
X192498Y214833D01*
X190499D01*
X196497Y213500D02*
Y217499D01*
X194497Y215499D01*
X197163D01*
X254700Y221599D02*
X257366D01*
X256033D01*
Y217600D01*
X258699D02*
Y221599D01*
X260698D01*
X261365Y220932D01*
Y219599D01*
X260698Y218933D01*
X258699D01*
X262697Y220932D02*
X263364Y221599D01*
X264697D01*
X265363Y220932D01*
Y220266D01*
X264697Y219599D01*
X264030D01*
X264697D01*
X265363Y218933D01*
Y218266D01*
X264697Y217600D01*
X263364D01*
X262697Y218266D01*
X193500Y142999D02*
X196166D01*
X194833D01*
Y139000D01*
X197499D02*
Y142999D01*
X199498D01*
X200165Y142332D01*
Y140999D01*
X199498Y140333D01*
X197499D01*
X204163Y139000D02*
X201497D01*
X204163Y141666D01*
Y142332D01*
X203497Y142999D01*
X202164D01*
X201497Y142332D01*
X171500Y143499D02*
X174166D01*
X172833D01*
Y139500D01*
X175499D02*
Y143499D01*
X177498D01*
X178165Y142832D01*
Y141499D01*
X177498Y140833D01*
X175499D01*
X179497Y139500D02*
X180830D01*
X180164D01*
Y143499D01*
X179497Y142832D01*
X217000Y187500D02*
Y191499D01*
X218999D01*
X219666Y190832D01*
Y189499D01*
X218999Y188833D01*
X217000D01*
X218333D02*
X219666Y187500D01*
X220999Y190832D02*
X221665Y191499D01*
X222998D01*
X223664Y190832D01*
Y190166D01*
X222998Y189499D01*
X222332D01*
X222998D01*
X223664Y188833D01*
Y188166D01*
X222998Y187500D01*
X221665D01*
X220999Y188166D01*
X203500Y161500D02*
Y165499D01*
X205499D01*
X206166Y164832D01*
Y163499D01*
X205499Y162833D01*
X203500D01*
X204833D02*
X206166Y161500D01*
X207499D02*
X208832D01*
X208165D01*
Y165499D01*
X207499Y164832D01*
X205166Y171832D02*
X204499Y172499D01*
X203167D01*
X202500Y171832D01*
Y169167D01*
X203167Y168500D01*
X204499D01*
X205166Y169167D01*
X206499D02*
X207165Y168500D01*
X208498D01*
X209165Y169167D01*
Y171832D01*
X208498Y172499D01*
X207165D01*
X206499Y171832D01*
Y171166D01*
X207165Y170499D01*
X209165D01*
X182666Y231332D02*
X181999Y231999D01*
X180666D01*
X180000Y231332D01*
Y228666D01*
X180666Y228000D01*
X181999D01*
X182666Y228666D01*
X183999Y231332D02*
X184665Y231999D01*
X185998D01*
X186664Y231332D01*
Y230666D01*
X185998Y229999D01*
X186664Y229333D01*
Y228666D01*
X185998Y228000D01*
X184665D01*
X183999Y228666D01*
Y229333D01*
X184665Y229999D01*
X183999Y230666D01*
Y231332D01*
X184665Y229999D02*
X185998D01*
X199166Y221332D02*
X198499Y221999D01*
X197167D01*
X196500Y221332D01*
Y218666D01*
X197167Y218000D01*
X198499D01*
X199166Y218666D01*
X200499Y221999D02*
X203165D01*
Y221332D01*
X200499Y218666D01*
Y218000D01*
X236666Y212832D02*
X235999Y213499D01*
X234666D01*
X234000Y212832D01*
Y210166D01*
X234666Y209500D01*
X235999D01*
X236666Y210166D01*
X240665Y213499D02*
X239332Y212832D01*
X237999Y211499D01*
Y210166D01*
X238665Y209500D01*
X239998D01*
X240665Y210166D01*
Y210833D01*
X239998Y211499D01*
X237999D01*
X229668Y177166D02*
X229001Y176499D01*
Y175166D01*
X229668Y174500D01*
X232334D01*
X233000Y175166D01*
Y176499D01*
X232334Y177166D01*
X229001Y181165D02*
Y178499D01*
X231001D01*
X230334Y179832D01*
Y180498D01*
X231001Y181165D01*
X232334D01*
X233000Y180498D01*
Y179165D01*
X232334Y178499D01*
X223666Y170332D02*
X222999Y170999D01*
X221666D01*
X221000Y170332D01*
Y167666D01*
X221666Y167000D01*
X222999D01*
X223666Y167666D01*
X226998Y167000D02*
Y170999D01*
X224999Y168999D01*
X227664D01*
X219666Y207832D02*
X218999Y208499D01*
X217666D01*
X217000Y207832D01*
Y205166D01*
X217666Y204500D01*
X218999D01*
X219666Y205166D01*
X220999Y207832D02*
X221665Y208499D01*
X222998D01*
X223664Y207832D01*
Y207166D01*
X222998Y206499D01*
X222332D01*
X222998D01*
X223664Y205833D01*
Y205166D01*
X222998Y204500D01*
X221665D01*
X220999Y205166D01*
X208166Y221332D02*
X207499Y221999D01*
X206166D01*
X205500Y221332D01*
Y218666D01*
X206166Y218000D01*
X207499D01*
X208166Y218666D01*
X212164Y218000D02*
X209499D01*
X212164Y220666D01*
Y221332D01*
X211498Y221999D01*
X210165D01*
X209499Y221332D01*
X182332Y168834D02*
X182999Y169501D01*
Y170834D01*
X182332Y171500D01*
X179666D01*
X179000Y170834D01*
Y169501D01*
X179666Y168834D01*
X179000Y167501D02*
Y166168D01*
Y166835D01*
X182999D01*
X182332Y167501D01*
X239500Y174500D02*
X235501D01*
Y176499D01*
X236168Y177166D01*
X237501D01*
X238167Y176499D01*
Y174500D01*
Y175833D02*
X239500Y177166D01*
Y181165D02*
Y178499D01*
X236834Y181165D01*
X236168D01*
X235501Y180498D01*
Y179165D01*
X236168Y178499D01*
X123649Y238348D02*
X122649Y239348D01*
X120650D01*
X119650Y238348D01*
Y234350D01*
X120650Y233350D01*
X122649D01*
X123649Y234350D01*
X125648Y233350D02*
Y239348D01*
X129647Y233350D01*
Y239348D01*
X131646Y233350D02*
X133645D01*
X132646D01*
Y239348D01*
X131646Y238348D01*
X166333Y209000D02*
X167000Y209666D01*
Y210999D01*
X166333Y211666D01*
X163668D01*
X163001Y210999D01*
Y209666D01*
X163668Y209000D01*
X164334D01*
X165001Y209666D01*
Y211666D01*
X166000Y169000D02*
Y170333D01*
Y169667D01*
X162001D01*
X162668Y169000D01*
D24*
X197776Y188138D02*
G03*
X197776Y188138I-1181J0D01*
G01*
D25*
X192146Y179772D02*
G03*
X192146Y179772I-492J0D01*
G01*
D26*
X212343Y184201D02*
Y196799D01*
X192657Y184201D02*
Y196799D01*
X212343D01*
X192657Y184201D02*
X212343D01*
X185748Y215409D02*
Y216590D01*
X179252Y215409D02*
Y216590D01*
X239854Y198606D02*
Y199394D01*
X234146Y198606D02*
Y199394D01*
X119000Y230000D02*
X160000D01*
X119000Y150000D02*
X160000D01*
Y230000D01*
X119000Y150000D02*
Y230000D01*
M02*
