G04 Layer_Color=32768*
%FSLAX25Y25*%
%MOIN*%
G70*
G01*
G75*
%ADD40C,0.00394*%
%ADD41C,0.00197*%
D40*
X200532Y190500D02*
X204468D01*
X202500Y188531D02*
Y192469D01*
X187000Y166630D02*
Y170370D01*
X185130Y168500D02*
X188870D01*
X195130Y163500D02*
X198870D01*
X197000Y161630D02*
Y165370D01*
X213130Y169000D02*
X216870D01*
X215000Y167130D02*
Y170870D01*
X217000Y176130D02*
Y179870D01*
X215130Y178000D02*
X218870D01*
X195130Y171000D02*
X198870D01*
X197000Y169130D02*
Y172870D01*
X200500Y210630D02*
Y214370D01*
X198630Y212500D02*
X202370D01*
X208000Y210630D02*
Y214370D01*
X206130Y212500D02*
X209870D01*
X182500Y214032D02*
Y217969D01*
X180532Y216000D02*
X184468D01*
X218130Y194500D02*
X221870D01*
X220000Y192630D02*
Y196370D01*
X218130Y201500D02*
X221870D01*
X220000Y199630D02*
Y203370D01*
X237000Y197031D02*
Y200969D01*
X235032Y199000D02*
X238968D01*
X222630Y178000D02*
X226370D01*
X224500Y176130D02*
Y179870D01*
D41*
X213327Y175933D02*
Y205067D01*
X191673Y175933D02*
Y205067D01*
X213327D01*
X191673Y175933D02*
X213327D01*
X184047Y173815D02*
X189953D01*
X184047Y163185D02*
X189953D01*
Y173815D01*
X184047Y163185D02*
Y173815D01*
X202118Y160547D02*
Y166453D01*
X191882Y160547D02*
Y166453D01*
Y160547D02*
X202118D01*
X191882Y166453D02*
X202118D01*
X220315Y166047D02*
Y171953D01*
X209685Y166047D02*
Y171953D01*
Y166047D02*
X220315D01*
X209685Y171953D02*
X220315D01*
X214047Y172685D02*
X219953D01*
X214047Y183315D02*
X219953D01*
X214047Y172685D02*
Y183315D01*
X219953Y172685D02*
Y183315D01*
X191685Y168047D02*
Y173953D01*
X202315Y168047D02*
Y173953D01*
X191685D02*
X202315D01*
X191685Y168047D02*
X202315D01*
X197547Y207185D02*
X203453D01*
X197547Y217815D02*
X203453D01*
X197547Y207185D02*
Y217815D01*
X203453Y207185D02*
Y217815D01*
X205047D02*
X210953D01*
X205047Y207185D02*
X210953D01*
Y217815D01*
X205047Y207185D02*
Y217815D01*
X177776Y227417D02*
X187224D01*
X177776Y204583D02*
X187224D01*
Y227417D01*
X177776Y204583D02*
Y227417D01*
X214685Y191547D02*
Y197453D01*
X225315Y191547D02*
Y197453D01*
X214685D02*
X225315D01*
X214685Y191547D02*
X225315D01*
Y198547D02*
Y204453D01*
X214685Y198547D02*
Y204453D01*
Y198547D02*
X225315D01*
X214685Y204453D02*
X225315D01*
X232669Y207858D02*
X241331D01*
X232669Y190142D02*
X241331D01*
Y207858D01*
X232669Y190142D02*
Y207858D01*
X221547Y172882D02*
Y183118D01*
X227453Y172882D02*
Y183118D01*
X221547Y172882D02*
X227453D01*
X221547Y183118D02*
X227453D01*
M02*
