M48
;Layer_Color=9474304
;FILE_FORMAT=2:5
INCH
;TYPE=PLATED
T1F00S00C0.02756
T2F00S00C0.02800
T3F00S00C0.03150
T4F00S00C0.03543
T5F00S00C0.03937
T6F00S00C0.03937
T7F00S00C0.05000
T8F00S00C0.05118
T9F00S00C0.05512
T10F00S00C0.05709
T11F00S00C0.05906
T12F00S00C0.06693
T13F00S00C0.07874
T14F00S00C0.07992
T15F00S00C0.15000
%
T01
X0516157Y0156000
X0526000
T02
X0546500Y0152000
X0551000
Y0156500
Y0161000
X0546500
Y0156500
X0498500Y0160500
X0510500Y0175500
X0546000Y0359000
Y0363500
Y0368000
X0550500
Y0363500
Y0359000
T03
X0182000Y0165917
Y0254500
X0142000Y0252083
Y0163500
T04
X0173000Y0273972
Y0303500
X0148000Y0304000
Y0274472
T05
X0159500Y0136000
X0189028Y0144661
T06
X0501000Y0261000
Y0271000
Y0281000
Y0291000
Y0301000
X0511000
Y0291000
Y0281000
Y0271000
Y0261000
X0584000
X0614512
Y0186000
X0584000
X0276000Y0287500
Y0346555
X0583500Y0336000
X0614012
T07
X0476500Y0125000
X0496500
T08
X0541000Y0115500
X0560685
X0594500Y0115000
X0614185
X0153815Y0379000
X0134130
X0173500
T09
X0202205Y0303000
X0235000
X0134500Y0337500
X0232925
T10
X0309500Y0275000
Y0353740
T11
X0237500Y0149000
X0297500
X0442130Y0150000
X0481500
X0414000Y0175500
X0343921
Y0295500
X0414000
X0297500Y0239000
X0237500
X0349000Y0339500
X0368016
X0387032
X0406047
T12
X0450000Y0127500
X0498000Y0150500
X0477500Y0258000
X0537000
Y0287500
X0276500Y0362000
X0440000Y0341500
X0476500Y0316500
X0492000Y0363000
X0511000Y0344000
X0539030Y0319029
T13
X0446000Y0192890
Y0311000
T14
X0376244Y0130500
X0397622
X0419000
T15
X0129500Y0125500
X0636500Y0095000
X0129000Y0306000
X0636500Y0362500
M30
