G04 Layer_Color=65535*
%FSLAX25Y25*%
%MOIN*%
G70*
G01*
G75*
%ADD82C,0.01000*%
%ADD83C,0.00787*%
%ADD84C,0.02953*%
%ADD85C,0.00984*%
%ADD86C,0.03937*%
%ADD87R,0.10236X0.03062*%
D82*
X488000Y174000D02*
G03*
X488000Y174000I-500J0D01*
G01*
X467000Y116500D02*
Y133500D01*
X509500D01*
X467000Y116500D02*
X506000D01*
X505000D02*
Y133500D01*
Y116500D02*
X509500D01*
Y133500D01*
X199000Y154138D02*
Y264000D01*
X165000Y154138D02*
Y264000D01*
X199000D01*
X165000Y154138D02*
X199000D01*
X484630Y158563D02*
X486937D01*
X487000Y158500D01*
Y166374D01*
X486937Y166437D02*
X487000Y166374D01*
X484630Y166437D02*
X486937D01*
X401375Y350000D02*
X424500D01*
X333000D02*
X358125D01*
X333000Y335500D02*
Y350000D01*
X358125D02*
X401375D01*
X424500Y329500D02*
Y350000D01*
X404500Y326500D02*
X407500D01*
X347500Y325500D02*
X350500D01*
X349000Y324000D02*
Y327000D01*
X333000Y335500D02*
X339000Y329500D01*
X424500D01*
X463563Y176437D02*
X465870D01*
X463500Y176500D02*
X463563Y176437D01*
X463500Y168626D02*
Y176500D01*
Y168626D02*
X463563Y168563D01*
X465870D01*
X125000Y154000D02*
Y263862D01*
X159000Y154000D02*
Y263862D01*
X125000Y154000D02*
X159000D01*
X125000Y263862D02*
X159000D01*
X429600Y116000D02*
Y140100D01*
X432780Y120500D02*
Y140500D01*
X362465Y120500D02*
Y140500D01*
X432780D01*
Y116000D02*
Y121400D01*
X432000Y116000D02*
X432780D01*
X362465D02*
X432000D01*
X362465D02*
Y121400D01*
X149000Y129000D02*
X199500D01*
Y151500D01*
X149000Y129000D02*
Y151500D01*
X199500D01*
X235000Y312842D02*
X249764D01*
X235157Y293158D02*
X249764D01*
Y312842D01*
X217000Y243000D02*
Y266500D01*
Y121500D02*
X318000D01*
X217000D02*
Y153000D01*
X318000Y121500D02*
Y149000D01*
Y239000D02*
Y266500D01*
X217000Y153000D02*
Y243000D01*
X318000Y149000D02*
Y239000D01*
X217000Y266500D02*
X318000D01*
X139000Y311000D02*
X157000D01*
X139000Y267500D02*
Y311000D01*
Y267500D02*
X157000D01*
Y311000D01*
X164000Y310500D02*
X182000D01*
X164000Y267000D02*
Y310500D01*
Y267000D02*
X182000D01*
Y310500D01*
X529189Y133217D02*
X572496D01*
X529189Y97783D02*
X572496D01*
X529189D02*
Y133217D01*
X572496Y97783D02*
Y133217D01*
X582689Y132717D02*
X625996D01*
X582689Y97284D02*
X625996D01*
X582689D02*
Y132717D01*
X625996Y97284D02*
Y132717D01*
X122319Y361283D02*
X185311D01*
X122319Y396716D02*
X185311D01*
Y361283D02*
Y396716D01*
X122319Y361283D02*
Y396716D01*
X507166Y181332D02*
X506499Y181999D01*
X505166D01*
X504500Y181332D01*
Y178666D01*
X505166Y178000D01*
X506499D01*
X507166Y178666D01*
X511165Y178000D02*
X508499D01*
X511165Y180666D01*
Y181332D01*
X510498Y181999D01*
X509165D01*
X508499Y181332D01*
X515163Y181999D02*
X513830Y181332D01*
X512497Y179999D01*
Y178666D01*
X513164Y178000D01*
X514497D01*
X515163Y178666D01*
Y179333D01*
X514497Y179999D01*
X512497D01*
X501166Y203832D02*
X500499Y204499D01*
X499166D01*
X498500Y203832D01*
Y201167D01*
X499166Y200500D01*
X500499D01*
X501166Y201167D01*
X505164Y200500D02*
X502499D01*
X505164Y203166D01*
Y203832D01*
X504498Y204499D01*
X503165D01*
X502499Y203832D01*
X509163Y204499D02*
X506497D01*
Y202499D01*
X507830Y203166D01*
X508497D01*
X509163Y202499D01*
Y201167D01*
X508497Y200500D01*
X507164D01*
X506497Y201167D01*
X436000Y139500D02*
Y143499D01*
X437999D01*
X438666Y142832D01*
Y141499D01*
X437999Y140833D01*
X436000D01*
X437333D02*
X438666Y139500D01*
X439999D02*
X441332D01*
X440665D01*
Y143499D01*
X439999Y142832D01*
X445997Y139500D02*
X443331D01*
X445997Y142166D01*
Y142832D01*
X445330Y143499D01*
X443997D01*
X443331Y142832D01*
X208500Y125999D02*
Y122000D01*
X211166D01*
X212499D02*
X213832D01*
X213165D01*
Y125999D01*
X212499Y125332D01*
X440700Y324299D02*
Y320300D01*
X442033Y321633D01*
X443366Y320300D01*
Y324299D01*
X444699Y320300D02*
X446032D01*
X445365D01*
Y324299D01*
X444699Y323632D01*
X169000Y125999D02*
Y123333D01*
X170333Y122000D01*
X171666Y123333D01*
Y125999D01*
X172999Y122000D02*
Y124666D01*
X174332Y125999D01*
X175664Y124666D01*
Y122000D01*
Y123999D01*
X172999D01*
X176997Y122000D02*
Y125999D01*
X178997D01*
X179663Y125332D01*
Y123999D01*
X178997Y123333D01*
X176997D01*
X178330D02*
X179663Y122000D01*
X180996D02*
X182329D01*
X181663D01*
Y125999D01*
X180996Y125332D01*
X489500Y162499D02*
Y159167D01*
X490166Y158500D01*
X491499D01*
X492166Y159167D01*
Y162499D01*
X496165Y158500D02*
X493499D01*
X496165Y161166D01*
Y161832D01*
X495498Y162499D01*
X494165D01*
X493499Y161832D01*
X504000Y335999D02*
X506666D01*
X505333D01*
Y332000D01*
X507999D02*
Y335999D01*
X509998D01*
X510665Y335332D01*
Y333999D01*
X509998Y333333D01*
X507999D01*
X514663Y332000D02*
X511997D01*
X514663Y334666D01*
Y335332D01*
X513997Y335999D01*
X512664D01*
X511997Y335332D01*
X515996D02*
X516663Y335999D01*
X517996D01*
X518662Y335332D01*
Y332666D01*
X517996Y332000D01*
X516663D01*
X515996Y332666D01*
Y335332D01*
X505001Y142000D02*
Y144666D01*
Y143333D01*
X509000D01*
Y145999D02*
X505001D01*
Y147998D01*
X505668Y148664D01*
X507001D01*
X507667Y147998D01*
Y145999D01*
X509000Y149997D02*
Y151330D01*
Y150664D01*
X505001D01*
X505668Y149997D01*
X508334Y153330D02*
X509000Y153996D01*
Y155329D01*
X508334Y155996D01*
X505668D01*
X505001Y155329D01*
Y153996D01*
X505668Y153330D01*
X506334D01*
X507001Y153996D01*
Y155996D01*
X530500Y281499D02*
X533166D01*
X531833D01*
Y277500D01*
X534499D02*
Y281499D01*
X536498D01*
X537164Y280832D01*
Y279499D01*
X536498Y278833D01*
X534499D01*
X538497Y277500D02*
X539830D01*
X539164D01*
Y281499D01*
X538497Y280832D01*
X541830D02*
X542496Y281499D01*
X543829D01*
X544495Y280832D01*
Y280166D01*
X543829Y279499D01*
X544495Y278833D01*
Y278166D01*
X543829Y277500D01*
X542496D01*
X541830Y278166D01*
Y278833D01*
X542496Y279499D01*
X541830Y280166D01*
Y280832D01*
X542496Y279499D02*
X543829D01*
X486000Y371999D02*
X488666D01*
X487333D01*
Y368000D01*
X489999D02*
Y371999D01*
X491998D01*
X492664Y371332D01*
Y369999D01*
X491998Y369333D01*
X489999D01*
X493997Y368000D02*
X495330D01*
X494664D01*
Y371999D01*
X493997Y371332D01*
X497330Y371999D02*
X499996D01*
Y371332D01*
X497330Y368666D01*
Y368000D01*
X441000Y121499D02*
X443666D01*
X442333D01*
Y117500D01*
X444999D02*
Y121499D01*
X446998D01*
X447664Y120832D01*
Y119499D01*
X446998Y118833D01*
X444999D01*
X448997Y117500D02*
X450330D01*
X449664D01*
Y121499D01*
X448997Y120832D01*
X454995Y121499D02*
X453663Y120832D01*
X452330Y119499D01*
Y118166D01*
X452996Y117500D01*
X454329D01*
X454995Y118166D01*
Y118833D01*
X454329Y119499D01*
X452330D01*
X531500Y249999D02*
X534166D01*
X532833D01*
Y246000D01*
X535499D02*
Y249999D01*
X537498D01*
X538165Y249332D01*
Y247999D01*
X537498Y247333D01*
X535499D01*
X539497Y249999D02*
X542163D01*
Y249332D01*
X539497Y246666D01*
Y246000D01*
X472600Y271399D02*
X475266D01*
X473933D01*
Y267400D01*
X476599D02*
Y271399D01*
X478598D01*
X479264Y270732D01*
Y269399D01*
X478598Y268733D01*
X476599D01*
X483263Y271399D02*
X481930Y270732D01*
X480597Y269399D01*
Y268066D01*
X481264Y267400D01*
X482597D01*
X483263Y268066D01*
Y268733D01*
X482597Y269399D01*
X480597D01*
X533030Y311028D02*
X535695D01*
X534362D01*
Y307030D01*
X537028D02*
Y311028D01*
X539028D01*
X539694Y310362D01*
Y309029D01*
X539028Y308362D01*
X537028D01*
X543026Y307030D02*
Y311028D01*
X541027Y309029D01*
X543693D01*
X471500Y308499D02*
X474166D01*
X472833D01*
Y304500D01*
X475499D02*
Y308499D01*
X477498D01*
X478164Y307832D01*
Y306499D01*
X477498Y305833D01*
X475499D01*
X479497Y307832D02*
X480164Y308499D01*
X481497D01*
X482163Y307832D01*
Y307166D01*
X481497Y306499D01*
X480830D01*
X481497D01*
X482163Y305833D01*
Y305166D01*
X481497Y304500D01*
X480164D01*
X479497Y305166D01*
X450499Y347000D02*
Y344334D01*
Y345667D01*
X446500D01*
Y343001D02*
X450499D01*
Y341002D01*
X449832Y340335D01*
X448499D01*
X447833Y341002D01*
Y343001D01*
X446500Y336337D02*
Y339003D01*
X449166Y336337D01*
X449832D01*
X450499Y337003D01*
Y338336D01*
X449832Y339003D01*
X259000Y363999D02*
X261666D01*
X260333D01*
Y360000D01*
X262999D02*
Y363999D01*
X264998D01*
X265665Y363332D01*
Y361999D01*
X264998Y361333D01*
X262999D01*
X266997Y360000D02*
X268330D01*
X267664D01*
Y363999D01*
X266997Y363332D01*
X188000Y316300D02*
Y320299D01*
X189999D01*
X190666Y319632D01*
Y318299D01*
X189999Y317633D01*
X188000D01*
X189333D02*
X190666Y316300D01*
X191999Y320299D02*
X194665D01*
X193332D01*
Y316300D01*
X195997D02*
X197330D01*
X196664D01*
Y320299D01*
X195997Y319632D01*
X511000Y367500D02*
Y371499D01*
X512999D01*
X513666Y370832D01*
Y369499D01*
X512999Y368833D01*
X511000D01*
X512333D02*
X513666Y367500D01*
X514999D02*
X516332D01*
X515665D01*
Y371499D01*
X514999Y370832D01*
X520997Y371499D02*
X519664Y370832D01*
X518331Y369499D01*
Y368166D01*
X518997Y367500D01*
X520330D01*
X520997Y368166D01*
Y368833D01*
X520330Y369499D01*
X518331D01*
X467000Y330000D02*
Y333999D01*
X468999D01*
X469666Y333332D01*
Y331999D01*
X468999Y331333D01*
X467000D01*
X468333D02*
X469666Y330000D01*
X470999D02*
X472332D01*
X471665D01*
Y333999D01*
X470999Y333332D01*
X476997Y333999D02*
X474331D01*
Y331999D01*
X475664Y332666D01*
X476330D01*
X476997Y331999D01*
Y330666D01*
X476330Y330000D01*
X474997D01*
X474331Y330666D01*
X457000Y137500D02*
Y141499D01*
X458999D01*
X459666Y140832D01*
Y139499D01*
X458999Y138833D01*
X457000D01*
X458333D02*
X459666Y137500D01*
X460999D02*
X462332D01*
X461665D01*
Y141499D01*
X460999Y140832D01*
X464331Y137500D02*
X465664D01*
X464997D01*
Y141499D01*
X464331Y140832D01*
X449500Y154000D02*
Y157999D01*
X451499D01*
X452166Y157332D01*
Y155999D01*
X451499Y155333D01*
X449500D01*
X450833D02*
X452166Y154000D01*
X453499D02*
X454832D01*
X454165D01*
Y157999D01*
X453499Y157332D01*
X456831D02*
X457497Y157999D01*
X458830D01*
X459497Y157332D01*
Y154666D01*
X458830Y154000D01*
X457497D01*
X456831Y154666D01*
Y157332D01*
X451500Y177500D02*
Y181499D01*
X453499D01*
X454166Y180832D01*
Y179499D01*
X453499Y178833D01*
X451500D01*
X452833D02*
X454166Y177500D01*
X455499Y178166D02*
X456165Y177500D01*
X457498D01*
X458165Y178166D01*
Y180832D01*
X457498Y181499D01*
X456165D01*
X455499Y180832D01*
Y180166D01*
X456165Y179499D01*
X458165D01*
X550000Y308000D02*
Y311999D01*
X551999D01*
X552666Y311332D01*
Y309999D01*
X551999Y309333D01*
X550000D01*
X551333D02*
X552666Y308000D01*
X553999Y311999D02*
X556665D01*
Y311332D01*
X553999Y308666D01*
Y308000D01*
X524000Y350000D02*
Y353999D01*
X525999D01*
X526666Y353332D01*
Y351999D01*
X525999Y351333D01*
X524000D01*
X525333D02*
X526666Y350000D01*
X529998D02*
Y353999D01*
X527999Y351999D01*
X530664D01*
X539500Y343000D02*
Y346999D01*
X541499D01*
X542166Y346332D01*
Y344999D01*
X541499Y344333D01*
X539500D01*
X540833D02*
X542166Y343000D01*
X543499Y346332D02*
X544165Y346999D01*
X545498D01*
X546165Y346332D01*
Y345666D01*
X545498Y344999D01*
X544832D01*
X545498D01*
X546165Y344333D01*
Y343666D01*
X545498Y343000D01*
X544165D01*
X543499Y343666D01*
X547000Y333000D02*
Y336999D01*
X548999D01*
X549666Y336332D01*
Y334999D01*
X548999Y334333D01*
X547000D01*
X548333D02*
X549666Y333000D01*
X553664D02*
X550999D01*
X553664Y335666D01*
Y336332D01*
X552998Y336999D01*
X551665D01*
X550999Y336332D01*
X458500Y320000D02*
Y323999D01*
X460499D01*
X461166Y323332D01*
Y321999D01*
X460499Y321333D01*
X458500D01*
X459833D02*
X461166Y320000D01*
X462499D02*
X463832D01*
X463165D01*
Y323999D01*
X462499Y323332D01*
X356666Y117666D02*
Y120332D01*
X355999Y120999D01*
X354666D01*
X354000Y120332D01*
Y117666D01*
X354666Y117000D01*
X355999D01*
X355333Y118333D02*
X356666Y117000D01*
X355999D02*
X356666Y117666D01*
X357999Y117000D02*
X359332D01*
X358665D01*
Y120999D01*
X357999Y120332D01*
X331000Y146499D02*
Y142500D01*
X333666D01*
X337665D02*
X334999D01*
X337665Y145166D01*
Y145832D01*
X336998Y146499D01*
X335665D01*
X334999Y145832D01*
X185666Y342499D02*
X183000D01*
Y340499D01*
X184333D01*
X183000D01*
Y338500D01*
X186999D02*
X188332D01*
X187665D01*
Y342499D01*
X186999Y341832D01*
X512500Y122999D02*
Y119000D01*
X514499D01*
X515166Y119667D01*
Y122332D01*
X514499Y122999D01*
X512500D01*
X519165D02*
X517832Y122332D01*
X516499Y120999D01*
Y119667D01*
X517165Y119000D01*
X518498D01*
X519165Y119667D01*
Y120333D01*
X518498Y120999D01*
X516499D01*
X305500Y366999D02*
Y363000D01*
X307499D01*
X308166Y363666D01*
Y366332D01*
X307499Y366999D01*
X305500D01*
X312164D02*
X309499D01*
Y364999D01*
X310832Y365666D01*
X311498D01*
X312164Y364999D01*
Y363666D01*
X311498Y363000D01*
X310165D01*
X309499Y363666D01*
X440000Y165499D02*
Y161500D01*
X441999D01*
X442666Y162167D01*
Y164832D01*
X441999Y165499D01*
X440000D01*
X445998Y161500D02*
Y165499D01*
X443999Y163499D01*
X446664D01*
X454500Y207999D02*
Y204000D01*
X456499D01*
X457166Y204666D01*
Y207332D01*
X456499Y207999D01*
X454500D01*
X458499Y207332D02*
X459165Y207999D01*
X460498D01*
X461165Y207332D01*
Y206666D01*
X460498Y205999D01*
X459832D01*
X460498D01*
X461165Y205333D01*
Y204666D01*
X460498Y204000D01*
X459165D01*
X458499Y204666D01*
X474500Y209499D02*
Y205500D01*
X476499D01*
X477166Y206166D01*
Y208832D01*
X476499Y209499D01*
X474500D01*
X481165Y205500D02*
X478499D01*
X481165Y208166D01*
Y208832D01*
X480498Y209499D01*
X479165D01*
X478499Y208832D01*
X441500Y174499D02*
Y170500D01*
X443499D01*
X444166Y171167D01*
Y173832D01*
X443499Y174499D01*
X441500D01*
X445499Y170500D02*
X446832D01*
X446165D01*
Y174499D01*
X445499Y173832D01*
X496266Y321732D02*
X495599Y322399D01*
X494266D01*
X493600Y321732D01*
Y319066D01*
X494266Y318400D01*
X495599D01*
X496266Y319066D01*
X497599Y318400D02*
Y322399D01*
X500265Y318400D01*
Y322399D01*
X503597Y318400D02*
Y322399D01*
X501597Y320399D01*
X504263D01*
X603666Y94832D02*
X602999Y95499D01*
X601666D01*
X601000Y94832D01*
Y92166D01*
X601666Y91500D01*
X602999D01*
X603666Y92166D01*
X604999Y91500D02*
Y95499D01*
X607664Y91500D01*
Y95499D01*
X608997Y94832D02*
X609664Y95499D01*
X610997D01*
X611663Y94832D01*
Y94166D01*
X610997Y93499D01*
X610330D01*
X610997D01*
X611663Y92833D01*
Y92166D01*
X610997Y91500D01*
X609664D01*
X608997Y92166D01*
X548666Y94332D02*
X547999Y94999D01*
X546666D01*
X546000Y94332D01*
Y91666D01*
X546666Y91000D01*
X547999D01*
X548666Y91666D01*
X549999Y91000D02*
Y94999D01*
X552665Y91000D01*
Y94999D01*
X556663Y91000D02*
X553997D01*
X556663Y93666D01*
Y94332D01*
X555997Y94999D01*
X554664D01*
X553997Y94332D01*
X191666Y366832D02*
X190999Y367499D01*
X189666D01*
X189000Y366832D01*
Y364166D01*
X189666Y363500D01*
X190999D01*
X191666Y364166D01*
X192999Y363500D02*
Y367499D01*
X195665Y363500D01*
Y367499D01*
X196997Y363500D02*
X198330D01*
X197664D01*
Y367499D01*
X196997Y366832D01*
X553666Y145832D02*
X552999Y146499D01*
X551666D01*
X551000Y145832D01*
Y143166D01*
X551666Y142500D01*
X552999D01*
X553666Y143166D01*
X557664Y142500D02*
X554999D01*
X557664Y145166D01*
Y145832D01*
X556998Y146499D01*
X555665D01*
X554999Y145832D01*
X558997Y142500D02*
X560330D01*
X559664D01*
Y146499D01*
X558997Y145832D01*
X577666Y147332D02*
X576999Y147999D01*
X575666D01*
X575000Y147332D01*
Y144667D01*
X575666Y144000D01*
X576999D01*
X577666Y144667D01*
X581665Y144000D02*
X578999D01*
X581665Y146666D01*
Y147332D01*
X580998Y147999D01*
X579665D01*
X578999Y147332D01*
X582997D02*
X583664Y147999D01*
X584997D01*
X585663Y147332D01*
Y144667D01*
X584997Y144000D01*
X583664D01*
X582997Y144667D01*
Y147332D01*
X553166Y354332D02*
X552499Y354999D01*
X551166D01*
X550500Y354332D01*
Y351666D01*
X551166Y351000D01*
X552499D01*
X553166Y351666D01*
X554499Y351000D02*
X555832D01*
X555165D01*
Y354999D01*
X554499Y354332D01*
X557831Y351666D02*
X558497Y351000D01*
X559830D01*
X560497Y351666D01*
Y354332D01*
X559830Y354999D01*
X558497D01*
X557831Y354332D01*
Y353666D01*
X558497Y352999D01*
X560497D01*
X564166Y233332D02*
X563499Y233999D01*
X562166D01*
X561500Y233332D01*
Y230666D01*
X562166Y230000D01*
X563499D01*
X564166Y230666D01*
X565499Y230000D02*
X566832D01*
X566165D01*
Y233999D01*
X565499Y233332D01*
X568831D02*
X569497Y233999D01*
X570830D01*
X571497Y233332D01*
Y232666D01*
X570830Y231999D01*
X571497Y231333D01*
Y230666D01*
X570830Y230000D01*
X569497D01*
X568831Y230666D01*
Y231333D01*
X569497Y231999D01*
X568831Y232666D01*
Y233332D01*
X569497Y231999D02*
X570830D01*
X564166Y305332D02*
X563499Y305999D01*
X562166D01*
X561500Y305332D01*
Y302666D01*
X562166Y302000D01*
X563499D01*
X564166Y302666D01*
X565499Y302000D02*
X566832D01*
X566165D01*
Y305999D01*
X565499Y305332D01*
X568831Y305999D02*
X571497D01*
Y305332D01*
X568831Y302666D01*
Y302000D01*
X458666Y135332D02*
X457999Y135999D01*
X456666D01*
X456000Y135332D01*
Y132667D01*
X456666Y132000D01*
X457999D01*
X458666Y132667D01*
X459999Y132000D02*
X461332D01*
X460665D01*
Y135999D01*
X459999Y135332D01*
X465997Y135999D02*
X464664Y135332D01*
X463331Y133999D01*
Y132667D01*
X463997Y132000D01*
X465330D01*
X465997Y132667D01*
Y133333D01*
X465330Y133999D01*
X463331D01*
X519666Y142332D02*
X518999Y142999D01*
X517666D01*
X517000Y142332D01*
Y139666D01*
X517666Y139000D01*
X518999D01*
X519666Y139666D01*
X523665Y142999D02*
X522332Y142332D01*
X520999Y140999D01*
Y139666D01*
X521665Y139000D01*
X522998D01*
X523665Y139666D01*
Y140333D01*
X522998Y140999D01*
X520999D01*
X173166Y315332D02*
X172499Y315999D01*
X171167D01*
X170500Y315332D01*
Y312666D01*
X171167Y312000D01*
X172499D01*
X173166Y312666D01*
X177164Y315999D02*
X174499D01*
Y313999D01*
X175832Y314666D01*
X176498D01*
X177164Y313999D01*
Y312666D01*
X176498Y312000D01*
X175165D01*
X174499Y312666D01*
X147166Y316832D02*
X146499Y317499D01*
X145167D01*
X144500Y316832D01*
Y314166D01*
X145167Y313500D01*
X146499D01*
X147166Y314166D01*
X150498Y313500D02*
Y317499D01*
X148499Y315499D01*
X151164D01*
X273666Y277332D02*
X272999Y277999D01*
X271666D01*
X271000Y277332D01*
Y274666D01*
X271666Y274000D01*
X272999D01*
X273666Y274666D01*
X274999Y277332D02*
X275665Y277999D01*
X276998D01*
X277664Y277332D01*
Y276666D01*
X276998Y275999D01*
X276332D01*
X276998D01*
X277664Y275333D01*
Y274666D01*
X276998Y274000D01*
X275665D01*
X274999Y274666D01*
X186166Y271332D02*
X185499Y271999D01*
X184167D01*
X183500Y271332D01*
Y268666D01*
X184167Y268000D01*
X185499D01*
X186166Y268666D01*
X190164Y268000D02*
X187499D01*
X190164Y270666D01*
Y271332D01*
X189498Y271999D01*
X188165D01*
X187499Y271332D01*
X138666Y149832D02*
X137999Y150499D01*
X136667D01*
X136000Y149832D01*
Y147167D01*
X136667Y146500D01*
X137999D01*
X138666Y147167D01*
X139999Y146500D02*
X141332D01*
X140665D01*
Y150499D01*
X139999Y149832D01*
X320500Y345999D02*
Y342000D01*
X322499D01*
X323166Y342666D01*
Y343333D01*
X322499Y343999D01*
X320500D01*
X322499D01*
X323166Y344666D01*
Y345332D01*
X322499Y345999D01*
X320500D01*
X324499Y342000D02*
Y345999D01*
X326498D01*
X327165Y345332D01*
Y343999D01*
X326498Y343333D01*
X324499D01*
X325832D02*
X327165Y342000D01*
X328497D02*
X329830D01*
X329164D01*
Y345999D01*
X328497Y345332D01*
X475334Y142000D02*
X478000D01*
X475334Y139334D01*
Y138668D01*
X476001Y138001D01*
X477334D01*
X478000Y138668D01*
X499000Y141500D02*
X497667D01*
X498334D01*
Y137501D01*
X499000Y138168D01*
X322000Y237834D02*
Y240500D01*
X324666Y237834D01*
X325332D01*
X325999Y238501D01*
Y239834D01*
X325332Y240500D01*
X324832Y147000D02*
X325499Y146334D01*
Y145001D01*
X324832Y144334D01*
X324166D01*
X323499Y145001D01*
Y145667D01*
Y145001D01*
X322833Y144334D01*
X322166D01*
X321500Y145001D01*
Y146334D01*
X322166Y147000D01*
X207000Y146001D02*
X210999D01*
X208999Y148000D01*
Y145334D01*
X207500Y242000D02*
Y240667D01*
Y241334D01*
X211499D01*
X210832Y242000D01*
D83*
X496380Y174870D02*
G03*
X498250Y174870I935J0D01*
G01*
X634189Y336000D02*
G03*
X634189Y336000I-35433J0D01*
G01*
X634689Y186000D02*
G03*
X634689Y186000I-35433J0D01*
G01*
Y261000D02*
G03*
X634689Y261000I-35433J0D01*
G01*
X530921Y156000D02*
G03*
X530921Y156000I-9843J0D01*
G01*
X497354Y163650D02*
Y174870D01*
X497276Y163650D02*
X497354D01*
X497276D02*
Y174870D01*
X498250D01*
X496380D02*
X497354D01*
X426500Y295500D02*
Y320500D01*
X414000D02*
X426500D01*
X331500D02*
X344000D01*
X331500Y150500D02*
Y320500D01*
Y150500D02*
X344000D01*
X426500D02*
Y295500D01*
X414000Y150500D02*
X426500D01*
X344000Y320500D02*
X414000D01*
X344000Y150500D02*
X414000D01*
X493000Y247000D02*
X519000D01*
X493000Y315000D02*
X519000D01*
Y247000D02*
Y315000D01*
X493000Y247000D02*
Y315000D01*
X552547Y369996D02*
X558453D01*
X552547Y357004D02*
X558453D01*
X548303Y330862D02*
X548697D01*
X548303Y326138D02*
X548697D01*
X463370Y162500D02*
Y166437D01*
X484630D01*
Y158563D02*
Y166437D01*
X463370Y158563D02*
X484630D01*
X463370D02*
Y162500D01*
X559500Y336000D02*
X563500D01*
X561500Y334000D02*
Y338000D01*
X560000Y186000D02*
X564000D01*
X562000Y184000D02*
Y188000D01*
X454303Y175362D02*
X454697D01*
X454303Y170638D02*
X454697D01*
X539803Y340862D02*
X540197D01*
X539803Y336138D02*
X540197D01*
X487130Y168563D02*
Y172500D01*
X465870Y168563D02*
X487130D01*
X465870D02*
Y176437D01*
X487130D01*
Y172500D02*
Y176437D01*
X553047Y162996D02*
X558953D01*
X553047Y150004D02*
X558953D01*
X454303Y165362D02*
X454697D01*
X454303Y160638D02*
X454697D01*
X560000Y261000D02*
X564000D01*
X562000Y259000D02*
Y263000D01*
X187441Y293200D02*
Y312842D01*
X202343D01*
X187441Y293200D02*
X187484Y293158D01*
X202343D01*
X529362Y341303D02*
Y341697D01*
X524638Y341303D02*
Y341697D01*
X257299Y281500D02*
X294701D01*
Y352500D01*
X257299D02*
X294701D01*
X257299Y286500D02*
Y352500D01*
Y281500D02*
Y286500D01*
X297689Y292323D02*
X309500D01*
X297689D02*
Y336417D01*
X321311D01*
Y292323D02*
Y336417D01*
X309500Y292323D02*
X321311D01*
X309500Y336417D02*
Y344094D01*
Y284646D02*
Y292323D01*
X475974Y201055D02*
X476874D01*
X475974Y182945D02*
X476874D01*
X461126Y201055D02*
X462026D01*
X461126Y182945D02*
X462026D01*
X476874D02*
Y201055D01*
X461126Y182945D02*
Y201055D01*
X490618Y190102D02*
Y195362D01*
X490618Y195362D02*
X490618Y195362D01*
X480382Y190102D02*
Y195362D01*
X490618D01*
X532500Y154000D02*
Y158000D01*
X529618Y156000D02*
X533618D01*
X462716Y336898D02*
X477283D01*
X462716Y349102D02*
X477283D01*
X513228Y365551D02*
X516772D01*
X513228Y359449D02*
X516772D01*
X122689Y325935D02*
Y333563D01*
Y316831D02*
Y322490D01*
X213240Y316831D02*
X244736D01*
Y345374D01*
Y358169D01*
X213240D02*
X244736D01*
X122689D02*
X127610D01*
X154185D01*
X122689Y316831D02*
X154185D01*
X122689Y322490D02*
Y325935D01*
Y333563D02*
Y358169D01*
X503409Y186784D02*
X504591D01*
X503409Y197216D02*
X504591D01*
X525000Y260000D02*
Y261312D01*
Y260656D01*
X521064D01*
X521720Y260000D01*
X524344Y300000D02*
X525000Y300656D01*
Y301968D01*
X524344Y302624D01*
X521720D01*
X521064Y301968D01*
Y300656D01*
X521720Y300000D01*
X522376D01*
X523032Y300656D01*
Y302624D01*
D84*
X436500Y175500D02*
G03*
X436500Y175500I-2500J0D01*
G01*
D85*
X461927Y180034D02*
G03*
X461927Y180034I-492J0D01*
G01*
X485992Y206976D02*
G03*
X485992Y206976I-492J0D01*
G01*
D86*
X299400Y334644D02*
X319511D01*
D87*
X485498Y193740D02*
D03*
M02*
