G04 Layer_Physical_Order=2*
G04 Layer_Color=16711680*
%FSLAX25Y25*%
%MOIN*%
G70*
G01*
G75*
%ADD17C,0.01000*%
%ADD18C,0.06000*%
G04:AMPARAMS|DCode=19|XSize=433.07mil|YSize=157.48mil|CornerRadius=39.37mil|HoleSize=0mil|Usage=FLASHONLY|Rotation=90.000|XOffset=0mil|YOffset=0mil|HoleType=Round|Shape=RoundedRectangle|*
%AMROUNDEDRECTD19*
21,1,0.43307,0.07874,0,0,90.0*
21,1,0.35433,0.15748,0,0,90.0*
1,1,0.07874,0.03937,0.17717*
1,1,0.07874,0.03937,-0.17717*
1,1,0.07874,-0.03937,-0.17717*
1,1,0.07874,-0.03937,0.17717*
%
%ADD19ROUNDEDRECTD19*%
%ADD20C,0.10630*%
%ADD21R,0.06890X0.06890*%
%ADD22C,0.06890*%
%ADD23C,0.05000*%
G36*
X272500Y137500D02*
X122500D01*
Y242500D01*
X272500D01*
Y137500D01*
D02*
G37*
%LPC*%
G36*
X173500Y227469D02*
Y224000D01*
X176969D01*
X176897Y224544D01*
X176494Y225517D01*
X175853Y226353D01*
X175017Y226994D01*
X174044Y227397D01*
X173500Y227469D01*
D02*
G37*
G36*
X172500D02*
X171956Y227397D01*
X170983Y226994D01*
X170147Y226353D01*
X169506Y225517D01*
X169103Y224544D01*
X169031Y224000D01*
X172500D01*
Y227469D01*
D02*
G37*
G36*
X199000Y236850D02*
X197566Y236709D01*
X196187Y236291D01*
X194916Y235612D01*
X193802Y234698D01*
X192888Y233584D01*
X192209Y232313D01*
X191791Y230934D01*
X191650Y229500D01*
X191791Y228066D01*
X192209Y226687D01*
X192888Y225416D01*
X193802Y224303D01*
X194916Y223388D01*
X196187Y222709D01*
X197566Y222291D01*
X199000Y222150D01*
X200434Y222291D01*
X201813Y222709D01*
X203084Y223388D01*
X204198Y224303D01*
X205112Y225416D01*
X205791Y226687D01*
X206209Y228066D01*
X206350Y229500D01*
X206209Y230934D01*
X205791Y232313D01*
X205112Y233584D01*
X204198Y234698D01*
X203084Y235612D01*
X201813Y236291D01*
X200434Y236709D01*
X199000Y236850D01*
D02*
G37*
G36*
X176969Y223000D02*
X173500D01*
Y219531D01*
X174044Y219603D01*
X175017Y220006D01*
X175853Y220647D01*
X176494Y221483D01*
X176897Y222456D01*
X176969Y223000D01*
D02*
G37*
G36*
X172500D02*
X169031D01*
X169103Y222456D01*
X169506Y221483D01*
X170147Y220647D01*
X170983Y220006D01*
X171956Y219603D01*
X172500Y219531D01*
Y223000D01*
D02*
G37*
G36*
X191500Y214543D02*
X190195Y214371D01*
X188978Y213867D01*
X187934Y213066D01*
X187133Y212022D01*
X186629Y210805D01*
X186457Y209500D01*
X186629Y208195D01*
X187133Y206978D01*
X187934Y205934D01*
X188978Y205133D01*
X190195Y204629D01*
X191500Y204457D01*
X192805Y204629D01*
X194022Y205133D01*
X195066Y205934D01*
X195868Y206978D01*
X196371Y208195D01*
X196543Y209500D01*
X196371Y210805D01*
X195868Y212022D01*
X195066Y213066D01*
X194022Y213867D01*
X192805Y214371D01*
X191500Y214543D01*
D02*
G37*
G36*
X265937Y215196D02*
X262500D01*
Y193000D01*
X270917D01*
Y210216D01*
X270747Y211505D01*
X270250Y212706D01*
X269458Y213738D01*
X268427Y214529D01*
X267226Y215026D01*
X265937Y215196D01*
D02*
G37*
G36*
X261500D02*
X258063D01*
X256774Y215026D01*
X255573Y214529D01*
X254542Y213738D01*
X253750Y212706D01*
X253253Y211505D01*
X253083Y210216D01*
Y193000D01*
X261500D01*
Y215196D01*
D02*
G37*
G36*
X187500Y182469D02*
Y179000D01*
X190969D01*
X190897Y179544D01*
X190494Y180517D01*
X189853Y181353D01*
X189017Y181994D01*
X188044Y182397D01*
X187500Y182469D01*
D02*
G37*
G36*
X186500D02*
X185956Y182397D01*
X184983Y181994D01*
X184147Y181353D01*
X183506Y180517D01*
X183103Y179544D01*
X183031Y179000D01*
X186500D01*
Y182469D01*
D02*
G37*
G36*
X190969Y178000D02*
X187500D01*
Y174531D01*
X188044Y174603D01*
X189017Y175006D01*
X189853Y175647D01*
X190494Y176483D01*
X190897Y177456D01*
X190969Y178000D01*
D02*
G37*
G36*
X186500D02*
X183031D01*
X183103Y177456D01*
X183506Y176483D01*
X184147Y175647D01*
X184983Y175006D01*
X185956Y174603D01*
X186500Y174531D01*
Y178000D01*
D02*
G37*
G36*
X270917Y192000D02*
X262500D01*
Y169804D01*
X265937D01*
X267226Y169974D01*
X268427Y170471D01*
X269458Y171262D01*
X270250Y172294D01*
X270747Y173495D01*
X270917Y174784D01*
Y192000D01*
D02*
G37*
G36*
X261500D02*
X253083D01*
Y174784D01*
X253253Y173495D01*
X253750Y172294D01*
X254542Y171262D01*
X255573Y170471D01*
X256774Y169974D01*
X258063Y169804D01*
X261500D01*
Y192000D01*
D02*
G37*
G36*
X162000Y221049D02*
X150500D01*
X149524Y220855D01*
X148698Y220302D01*
X143784Y215389D01*
X143000Y215492D01*
X141579Y215305D01*
X140254Y214756D01*
X139117Y213883D01*
X138244Y212746D01*
X137695Y211421D01*
X137508Y210000D01*
X137695Y208579D01*
X138244Y207254D01*
X139117Y206117D01*
X140209Y205279D01*
X140241Y205000D01*
X140209Y204721D01*
X139117Y203883D01*
X138244Y202746D01*
X137695Y201421D01*
X137508Y200000D01*
X137695Y198579D01*
X138244Y197254D01*
X139117Y196117D01*
X140209Y195279D01*
X140241Y195000D01*
X140209Y194721D01*
X139117Y193883D01*
X138244Y192746D01*
X137695Y191421D01*
X137508Y190000D01*
X137695Y188579D01*
X138244Y187254D01*
X139117Y186117D01*
X140209Y185279D01*
X140241Y185000D01*
X140209Y184721D01*
X139117Y183883D01*
X138244Y182746D01*
X137695Y181421D01*
X137508Y180000D01*
X137695Y178579D01*
X138244Y177254D01*
X139117Y176117D01*
X140209Y175279D01*
X140241Y175000D01*
X140209Y174721D01*
X139117Y173883D01*
X138244Y172746D01*
X137695Y171421D01*
X137508Y170000D01*
X137695Y168579D01*
X138244Y167254D01*
X139117Y166117D01*
X140254Y165244D01*
X141579Y164695D01*
X143000Y164508D01*
X144421Y164695D01*
X145746Y165244D01*
X146883Y166117D01*
X147082Y166375D01*
X147555Y166214D01*
Y164555D01*
X158445D01*
Y175445D01*
X154925D01*
X154825Y175945D01*
X155242Y176117D01*
X156170Y176830D01*
X156883Y177758D01*
X157331Y178840D01*
X157417Y179500D01*
X153000D01*
Y180500D01*
X157417D01*
X157331Y181160D01*
X156883Y182242D01*
X156170Y183170D01*
X155242Y183883D01*
X154479Y184198D01*
X154447Y184472D01*
X154504Y184729D01*
X155746Y185244D01*
X156883Y186117D01*
X157756Y187254D01*
X158305Y188579D01*
X158492Y190000D01*
X158305Y191421D01*
X157756Y192746D01*
X156883Y193883D01*
X155791Y194721D01*
X155759Y195000D01*
X155791Y195279D01*
X156883Y196117D01*
X157756Y197254D01*
X158305Y198579D01*
X158492Y200000D01*
X158305Y201421D01*
X157756Y202746D01*
X156883Y203883D01*
X155791Y204721D01*
X155759Y205000D01*
X155791Y205279D01*
X156883Y206117D01*
X157756Y207254D01*
X158305Y208579D01*
X158492Y210000D01*
X158305Y211421D01*
X157756Y212746D01*
X156883Y213883D01*
X155746Y214756D01*
X154421Y215305D01*
X153310Y215451D01*
X153343Y215951D01*
X160944D01*
X213070Y163825D01*
X212961Y163000D01*
X213116Y161825D01*
X213569Y160731D01*
X214291Y159791D01*
X215231Y159069D01*
X216325Y158616D01*
X217500Y158461D01*
X218675Y158616D01*
X219769Y159069D01*
X220709Y159791D01*
X221431Y160731D01*
X221884Y161825D01*
X222039Y163000D01*
X221884Y164175D01*
X221431Y165269D01*
X220709Y166209D01*
X219769Y166931D01*
X218675Y167384D01*
X217500Y167539D01*
X216675Y167430D01*
X163802Y220302D01*
X162976Y220855D01*
X162000Y221049D01*
D02*
G37*
G36*
X221500Y158350D02*
X220066Y158209D01*
X218687Y157791D01*
X217416Y157112D01*
X216302Y156198D01*
X215388Y155084D01*
X214709Y153813D01*
X214291Y152434D01*
X214150Y151000D01*
X214291Y149566D01*
X214709Y148187D01*
X215388Y146916D01*
X216302Y145802D01*
X217416Y144888D01*
X218687Y144209D01*
X220066Y143791D01*
X221500Y143650D01*
X222934Y143791D01*
X224313Y144209D01*
X225584Y144888D01*
X226697Y145802D01*
X227612Y146916D01*
X228291Y148187D01*
X228709Y149566D01*
X228850Y151000D01*
X228709Y152434D01*
X228291Y153813D01*
X227612Y155084D01*
X226697Y156198D01*
X225584Y157112D01*
X224313Y157791D01*
X222934Y158209D01*
X221500Y158350D01*
D02*
G37*
G36*
X199000D02*
X197566Y158209D01*
X196187Y157791D01*
X194916Y157112D01*
X193802Y156198D01*
X192888Y155084D01*
X192209Y153813D01*
X191791Y152434D01*
X191650Y151000D01*
X191791Y149566D01*
X192209Y148187D01*
X192888Y146916D01*
X193802Y145802D01*
X194916Y144888D01*
X196187Y144209D01*
X197566Y143791D01*
X199000Y143650D01*
X200434Y143791D01*
X201813Y144209D01*
X203084Y144888D01*
X204198Y145802D01*
X205112Y146916D01*
X205791Y148187D01*
X206209Y149566D01*
X206350Y151000D01*
X206209Y152434D01*
X205791Y153813D01*
X205112Y155084D01*
X204198Y156198D01*
X203084Y157112D01*
X201813Y157791D01*
X200434Y158209D01*
X199000Y158350D01*
D02*
G37*
G36*
X176500Y157850D02*
X175066Y157709D01*
X173687Y157291D01*
X172416Y156612D01*
X171302Y155698D01*
X170388Y154584D01*
X169709Y153313D01*
X169291Y151934D01*
X169150Y150500D01*
X169291Y149066D01*
X169709Y147687D01*
X170388Y146416D01*
X171302Y145302D01*
X172416Y144388D01*
X173687Y143709D01*
X175066Y143291D01*
X176500Y143150D01*
X177934Y143291D01*
X179313Y143709D01*
X180584Y144388D01*
X181697Y145302D01*
X182612Y146416D01*
X183291Y147687D01*
X183709Y149066D01*
X183850Y150500D01*
X183709Y151934D01*
X183291Y153313D01*
X182612Y154584D01*
X181697Y155698D01*
X180584Y156612D01*
X179313Y157291D01*
X177934Y157709D01*
X176500Y157850D01*
D02*
G37*
%LPD*%
D17*
X150500Y218500D02*
X162000D01*
X217500Y163000D01*
X144500Y212500D02*
X150500Y218500D01*
X144500Y209992D02*
Y212500D01*
D18*
X187000Y178500D02*
D03*
X191500Y209500D02*
D03*
X173000Y223500D02*
D03*
D19*
X262000Y192500D02*
D03*
D20*
X199000Y229500D02*
D03*
X221500Y151000D02*
D03*
X199000D02*
D03*
X176500Y150500D02*
D03*
D21*
X153000Y170000D02*
D03*
D22*
Y180000D02*
D03*
Y190000D02*
D03*
Y200000D02*
D03*
Y210000D02*
D03*
X143000Y170000D02*
D03*
Y180000D02*
D03*
Y190000D02*
D03*
Y200000D02*
D03*
Y210000D02*
D03*
D23*
X217500Y163000D02*
D03*
M02*
