G04 Layer_Color=8388736*
%FSLAX25Y25*%
%MOIN*%
G70*
G01*
G75*
%ADD88O,0.04934X0.03162*%
%ADD89R,0.04934X0.03162*%
%ADD90R,0.07099X0.14579*%
%ADD91R,0.04737X0.06312*%
%ADD92R,0.05524X0.04147*%
%ADD93R,0.06312X0.04737*%
%ADD94R,0.03950X0.04540*%
%ADD95R,0.03753X0.04737*%
%ADD96R,0.04540X0.03950*%
%ADD97R,0.11599X0.09300*%
%ADD98R,0.08674X0.08674*%
%ADD99R,0.06115X0.13792*%
%ADD100R,0.05328X0.07690*%
%ADD101R,0.09265X0.12020*%
%ADD102C,0.15800*%
%ADD103C,0.11430*%
%ADD104C,0.10642*%
%ADD105R,0.12800X0.07769*%
%ADD106O,0.12800X0.07769*%
%ADD107C,0.12611*%
%ADD108C,0.07690*%
%ADD109R,0.07690X0.07690*%
%ADD110C,0.07099*%
%ADD111R,0.07099X0.07099*%
%ADD112C,0.08674*%
%ADD113R,0.12611X0.12611*%
%ADD114C,0.12768*%
%ADD115R,0.12768X0.12768*%
%ADD116C,0.11824*%
%ADD117R,0.11824X0.11824*%
%ADD118R,0.12611X0.12611*%
%ADD119R,0.08674X0.08674*%
%ADD120C,0.10446*%
%ADD121R,0.10446X0.10446*%
%ADD122R,0.05524X0.05524*%
%ADD123C,0.05524*%
%ADD124C,0.11036*%
%ADD125C,0.05800*%
D88*
X502630Y165520D02*
D03*
Y169260D02*
D03*
Y173000D02*
D03*
X492000Y165520D02*
D03*
Y169260D02*
D03*
D89*
Y173000D02*
D03*
D90*
X547823Y363500D02*
D03*
X563177D02*
D03*
X548323Y156500D02*
D03*
X563677D02*
D03*
D91*
X544760Y328500D02*
D03*
X552240D02*
D03*
X450760Y173000D02*
D03*
X458240D02*
D03*
X536260Y338500D02*
D03*
X543740D02*
D03*
X450760Y163000D02*
D03*
X458240D02*
D03*
D92*
X480004Y162500D02*
D03*
X467996D02*
D03*
X470496Y172500D02*
D03*
X482504D02*
D03*
D93*
X527000Y345240D02*
D03*
Y337760D02*
D03*
D94*
X461441Y152500D02*
D03*
X466559D02*
D03*
X458941Y329000D02*
D03*
X464059D02*
D03*
D95*
X466354Y145500D02*
D03*
X460646D02*
D03*
X500854Y180500D02*
D03*
X495146D02*
D03*
D96*
X552500Y321059D02*
D03*
Y315941D02*
D03*
D97*
X469000Y200701D02*
D03*
Y183299D02*
D03*
D98*
X485500Y200874D02*
D03*
Y185126D02*
D03*
X583500Y336000D02*
D03*
X584000Y186000D02*
D03*
Y261000D02*
D03*
X159500Y136000D02*
D03*
D99*
X481516Y343000D02*
D03*
X458484D02*
D03*
D100*
X509390Y362500D02*
D03*
X520610D02*
D03*
D101*
X510299Y192000D02*
D03*
X497701D02*
D03*
D102*
X129000Y306000D02*
D03*
X636500Y362500D02*
D03*
Y95000D02*
D03*
X129500Y125500D02*
D03*
D103*
X492000Y363000D02*
D03*
X450000Y127500D02*
D03*
X477500Y258000D02*
D03*
X498000Y150500D02*
D03*
X276500Y362000D02*
D03*
X511000Y344000D02*
D03*
X539030Y319029D02*
D03*
X476500Y316500D02*
D03*
X440000Y341500D02*
D03*
X537000Y287500D02*
D03*
Y258000D02*
D03*
D104*
X481500Y150000D02*
D03*
X442130D02*
D03*
D105*
X496500Y125000D02*
D03*
D106*
X476500D02*
D03*
D107*
X343921Y175500D02*
D03*
Y295500D02*
D03*
X414000D02*
D03*
Y175500D02*
D03*
X406047Y339500D02*
D03*
X368016D02*
D03*
X387032D02*
D03*
X446000Y311000D02*
D03*
Y192890D02*
D03*
X237500Y149000D02*
D03*
X297500D02*
D03*
Y239000D02*
D03*
X232925Y337500D02*
D03*
D108*
X501000Y301000D02*
D03*
Y291000D02*
D03*
Y281000D02*
D03*
Y271000D02*
D03*
Y261000D02*
D03*
X511000Y301000D02*
D03*
Y291000D02*
D03*
Y281000D02*
D03*
Y271000D02*
D03*
D109*
Y261000D02*
D03*
D110*
X182000Y165917D02*
D03*
X142000Y252083D02*
D03*
D111*
X182000Y254500D02*
D03*
X142000Y163500D02*
D03*
D112*
X614012Y336000D02*
D03*
X614512Y186000D02*
D03*
Y261000D02*
D03*
X189028Y144661D02*
D03*
X276000Y346555D02*
D03*
X148000Y274472D02*
D03*
X173000Y273972D02*
D03*
D113*
X349000Y339500D02*
D03*
X134500Y337500D02*
D03*
D114*
X376244Y130500D02*
D03*
X397622D02*
D03*
D115*
X419000D02*
D03*
D116*
X202205Y303000D02*
D03*
D117*
X235000D02*
D03*
D118*
X237500Y239000D02*
D03*
D119*
X276000Y287500D02*
D03*
X148000Y304000D02*
D03*
X173000Y303500D02*
D03*
D120*
X309500Y275000D02*
D03*
D121*
Y353740D02*
D03*
D122*
X526000Y156000D02*
D03*
D123*
X516157D02*
D03*
D124*
X541000Y115500D02*
D03*
X560685D02*
D03*
X594500Y115000D02*
D03*
X614185D02*
D03*
X173500Y379000D02*
D03*
X153815D02*
D03*
X134130D02*
D03*
D125*
X510500Y175500D02*
D03*
X546000Y363500D02*
D03*
Y368000D02*
D03*
Y359000D02*
D03*
X550500Y368000D02*
D03*
Y363500D02*
D03*
Y359000D02*
D03*
X551000Y152000D02*
D03*
Y156500D02*
D03*
Y161000D02*
D03*
X546500Y152000D02*
D03*
Y161000D02*
D03*
Y156500D02*
D03*
M02*
