G04 Layer_Physical_Order=2*
G04 Layer_Color=16711680*
%FSLAX25Y25*%
%MOIN*%
G70*
G01*
G75*
%ADD20R,0.07874X0.07874*%
%ADD25C,0.02000*%
%ADD26C,0.16000*%
%ADD27C,0.04000*%
%ADD30C,0.10000*%
%ADD50C,0.15000*%
%ADD51C,0.10630*%
%ADD52C,0.09843*%
%ADD53R,0.12000X0.06969*%
%ADD54O,0.12000X0.06969*%
%ADD55C,0.11811*%
%ADD56C,0.06890*%
%ADD57R,0.06890X0.06890*%
%ADD58C,0.06299*%
%ADD59R,0.06299X0.06299*%
%ADD60C,0.07874*%
%ADD61R,0.11811X0.11811*%
%ADD62C,0.11969*%
%ADD63R,0.11969X0.11969*%
%ADD64C,0.11024*%
%ADD65R,0.11024X0.11024*%
%ADD66R,0.11811X0.11811*%
%ADD67R,0.07874X0.07874*%
%ADD68C,0.09646*%
%ADD69R,0.09646X0.09646*%
%ADD70R,0.04724X0.04724*%
%ADD71C,0.04724*%
%ADD72C,0.10236*%
%ADD73C,0.05000*%
%ADD74R,0.24000X0.31000*%
%ADD75R,0.32000X0.47000*%
%ADD76R,0.81500X0.12000*%
%ADD77R,0.25000X0.23500*%
%ADD78R,0.08000X0.37500*%
%ADD79R,0.35000X0.22500*%
%ADD80R,0.22500X0.09500*%
%ADD81R,0.23500X0.08500*%
D20*
X583500Y336000D02*
D03*
X584000Y186000D02*
D03*
Y261000D02*
D03*
X159500Y136000D02*
D03*
D25*
X533000Y262000D02*
X537000Y258000D01*
X512000Y262000D02*
X533000D01*
X511000Y261000D02*
X512000Y262000D01*
X536250Y316250D02*
X537750D01*
X521000Y301000D02*
X536250Y316250D01*
X511000Y301000D02*
X521000D01*
X531000Y160500D02*
X537000Y166500D01*
X498500Y160500D02*
X527000D01*
X526000Y155500D02*
Y159500D01*
X527000Y160500D01*
X531000D01*
X537000Y166500D02*
Y187500D01*
Y258000D01*
D26*
X254000Y302500D02*
X272000Y320500D01*
X227500Y302500D02*
X254000D01*
X439500Y304500D02*
X446000Y311000D01*
X423000Y304500D02*
X439500D01*
X414000Y295500D02*
X423000Y304500D01*
X309500Y353740D02*
X318500Y362740D01*
X572760D02*
X584000Y351500D01*
X406047Y339500D02*
X438000D01*
X440000Y341500D01*
X182000Y241000D02*
Y254500D01*
Y241000D02*
X214000Y209000D01*
Y156161D02*
Y209000D01*
X174917Y165917D02*
X182000D01*
X159500Y150500D02*
X174917Y165917D01*
X159500Y136000D02*
Y150500D01*
Y126000D02*
Y136000D01*
X245500Y126000D02*
X259500Y140000D01*
X159500Y126000D02*
X245500D01*
X189028Y144661D02*
X202500D01*
X214000Y156161D01*
X259500Y140000D02*
Y219500D01*
X584000Y130000D02*
Y351500D01*
X276000Y287500D02*
X291500D01*
X304000Y300000D01*
X309500Y266500D02*
Y275000D01*
X236500Y242500D02*
X259500Y219500D01*
X272000Y320500D02*
X355000D01*
X368016Y333516D01*
Y339500D01*
X309500Y266500D02*
X400500Y175500D01*
X414000D01*
X406047Y322547D02*
Y339500D01*
X304000Y300000D02*
X315000D01*
X339500Y275500D01*
X359000D01*
X406047Y322547D01*
X318500Y362740D02*
X572760D01*
D27*
X477000Y307000D02*
Y316500D01*
X500500Y219500D02*
X510500Y209500D01*
X500500Y219500D02*
Y260500D01*
X510500Y175500D02*
Y209500D01*
X500500Y260500D02*
X501000Y261000D01*
X483000Y301000D02*
X501000D01*
X477000Y307000D02*
X483000Y301000D01*
X480500Y261000D02*
X501000D01*
X477500Y258000D02*
X480500Y261000D01*
D30*
X422000Y127500D02*
X450000D01*
X419000Y130500D02*
X422000Y127500D01*
X464500Y150500D02*
X473500D01*
X455000Y160000D02*
X464500Y150500D01*
X473500Y128000D02*
Y150500D01*
X474000D02*
X480500D01*
X411000Y150000D02*
X442130D01*
X397622Y136622D02*
X411000Y150000D01*
X473500Y128000D02*
X476500Y125000D01*
X455000Y160000D02*
Y178500D01*
X446000Y187500D02*
X455000Y178500D01*
X446000Y187500D02*
Y192890D01*
X397622Y130500D02*
Y136622D01*
D50*
X129000Y306000D02*
D03*
X636500Y362500D02*
D03*
Y95000D02*
D03*
X129500Y125500D02*
D03*
D51*
X492000Y363000D02*
D03*
X450000Y127500D02*
D03*
X477500Y258000D02*
D03*
X498000Y150500D02*
D03*
X276500Y362000D02*
D03*
X511000Y344000D02*
D03*
X539030Y319029D02*
D03*
X476500Y316500D02*
D03*
X440000Y341500D02*
D03*
X537000Y287500D02*
D03*
Y258000D02*
D03*
D52*
X481500Y150000D02*
D03*
X442130D02*
D03*
D53*
X496500Y125000D02*
D03*
D54*
X476500D02*
D03*
D55*
X343921Y175500D02*
D03*
Y295500D02*
D03*
X414000D02*
D03*
Y175500D02*
D03*
X406047Y339500D02*
D03*
X368016D02*
D03*
X387032D02*
D03*
X446000Y311000D02*
D03*
Y192890D02*
D03*
X237500Y149000D02*
D03*
X297500D02*
D03*
Y239000D02*
D03*
X232925Y337500D02*
D03*
D56*
X501000Y301000D02*
D03*
Y291000D02*
D03*
Y281000D02*
D03*
Y271000D02*
D03*
Y261000D02*
D03*
X511000Y301000D02*
D03*
Y291000D02*
D03*
Y281000D02*
D03*
Y271000D02*
D03*
D57*
Y261000D02*
D03*
D58*
X182000Y165917D02*
D03*
X142000Y252083D02*
D03*
D59*
X182000Y254500D02*
D03*
X142000Y163500D02*
D03*
D60*
X614012Y336000D02*
D03*
X614512Y186000D02*
D03*
Y261000D02*
D03*
X189028Y144661D02*
D03*
X276000Y346555D02*
D03*
X148000Y274472D02*
D03*
X173000Y273972D02*
D03*
D61*
X349000Y339500D02*
D03*
X134500Y337500D02*
D03*
D62*
X376244Y130500D02*
D03*
X397622D02*
D03*
D63*
X419000D02*
D03*
D64*
X202205Y303000D02*
D03*
D65*
X235000D02*
D03*
D66*
X237500Y239000D02*
D03*
D67*
X276000Y287500D02*
D03*
X148000Y304000D02*
D03*
X173000Y303500D02*
D03*
D68*
X309500Y275000D02*
D03*
D69*
Y353740D02*
D03*
D70*
X526000Y156000D02*
D03*
D71*
X516157D02*
D03*
D72*
X541000Y115500D02*
D03*
X560685D02*
D03*
X594500Y115000D02*
D03*
X614185D02*
D03*
X173500Y379000D02*
D03*
X153815D02*
D03*
X134130D02*
D03*
D73*
X510500Y175500D02*
D03*
X498500Y160500D02*
D03*
X546000Y363500D02*
D03*
Y368000D02*
D03*
Y359000D02*
D03*
X550500Y368000D02*
D03*
Y363500D02*
D03*
Y359000D02*
D03*
X551000Y152000D02*
D03*
Y156500D02*
D03*
Y161000D02*
D03*
X546500Y152000D02*
D03*
Y161000D02*
D03*
Y156500D02*
D03*
D74*
X198000Y298000D02*
D03*
D75*
X141500Y259000D02*
D03*
D76*
X166250Y288500D02*
D03*
D77*
X588500Y119750D02*
D03*
D78*
X549000Y144750D02*
D03*
D79*
X505000Y127750D02*
D03*
D80*
X533750Y130750D02*
D03*
D81*
X564750Y130250D02*
D03*
M02*
